<?xml version="1.0" encoding="UTF-8" standalone="no"?>
<!-- Generator: Adobe Illustrator 12.0.0, SVG Export Plug-In . SVG Version: 6.00 Build 51448)  -->

<svg
   xmlns:dc="http://purl.org/dc/elements/1.1/"
   xmlns:cc="http://creativecommons.org/ns#"
   xmlns:rdf="http://www.w3.org/1999/02/22-rdf-syntax-ns#"
   xmlns:svg="http://www.w3.org/2000/svg"
   xmlns="http://www.w3.org/2000/svg"
   xmlns:sodipodi="http://sodipodi.sourceforge.net/DTD/sodipodi-0.dtd"
   xmlns:inkscape="http://www.inkscape.org/namespaces/inkscape"
   version="1.1"
   id="Layer_1"
   width="310"
   height="270"
   viewBox="-7.667 -2.207 310 270"
   overflow="visible"
   enable-background="new -7.667 -2.207 310 270"
   xml:space="preserve"
   inkscape:version="0.48.3.1 r9886"
   sodipodi:docname="Bohr-atom-PAR.svg"><metadata
   id="metadata105"><rdf:RDF><cc:Work
       rdf:about=""><dc:format>image/svg+xml</dc:format><dc:type
         rdf:resource="http://purl.org/dc/dcmitype/StillImage" /><dc:title></dc:title></cc:Work></rdf:RDF></metadata><defs
   id="defs103" /><sodipodi:namedview
   pagecolor="#ffffff"
   bordercolor="#666666"
   borderopacity="1"
   objecttolerance="10"
   gridtolerance="10"
   guidetolerance="10"
   inkscape:pageopacity="0"
   inkscape:pageshadow="2"
   inkscape:window-width="1317"
   inkscape:window-height="744"
   id="namedview101"
   showgrid="false"
   showguides="true"
   inkscape:guide-bbox="true"
   inkscape:zoom="1.7481481"
   inkscape:cx="218.88121"
   inkscape:cy="137.76845"
   inkscape:window-x="49"
   inkscape:window-y="24"
   inkscape:window-maximized="1"
   inkscape:current-layer="g95"><sodipodi:guide
     orientation="0,1"
     position="256.27119,122.70127"
     id="guide3086" /></sodipodi:namedview>
<circle
   cx="118.5"
   cy="138.293"
   r="52.222"
   id="circle3"
   stroke-width="2"
   stroke="#C3C3C3"
   fill="none" />
<circle
   cx="118.5"
   cy="138.293"
   r="11.75"
   id="circle5"
   stroke-width="2"
   stroke="#C3C3C3"
   fill="none" />
<path
   d="M235.444,149.793c-5.779,59.497-55.931,106-116.944,106  c-64.894,0-117.5-52.606-117.5-117.5s52.606-117.5,117.5-117.5c60.838,0,110.876,46.236,116.894,105.486"
   id="path7"
   stroke-width="2"
   stroke="#C3C3C3"
   fill="none" />
<circle
   cx="118.5"
   cy="138.293"
   r="3.625"
   id="circle9" />
<g
   id="g11">
	<g
   id="g13">
		<line
   x1="220.228"
   y1="79.456"
   x2="178.787"
   y2="103.425"
   id="line15"
   stroke-width="2"
   stroke="#0000FF"
   fill="none" />
		<path
   d="M175.726,107.564c3.361-0.791,5.685-1.071,8.512-1.478l-5.051-8.733c-0.597,0.866-3.162,4.123-5.524,6.642    c-2.527,2.698-4.938,4.938-6.61,6.205C168.981,109.385,172.126,108.412,175.726,107.564z"
   id="path17"
   fill="#0000FF" />
	</g>
</g>
<circle
   cx="220.226"
   cy="79.456"
   r="3.625"
   id="circle19"
   fill="#09A44A" />
<circle
   cx="163.711"
   cy="112.144"
   r="3.625"
   id="circle21"
   fill="#09A44A" />
<g
   id="g23">
	<g
   enable-background="new    "
   id="g25">
		<path
   d="M96.652,16.878l2.176-10.391h1.612l-0.368,1.813c0.704-0.714,1.362-1.233,1.974-1.56    c0.612-0.324,1.237-0.487,1.875-0.487c0.849,0,1.515,0.231,1.999,0.694c0.484,0.462,0.726,1.08,0.726,1.854    c0,0.383-0.09,0.987-0.271,1.813l-1.405,6.265h-1.771l1.456-6.588c0.145-0.64,0.217-1.112,0.217-1.419    c0-0.346-0.121-0.627-0.362-0.842c-0.242-0.216-0.591-0.323-1.047-0.323c-0.92,0-1.739,0.327-2.457,0.981    s-1.246,1.777-1.583,3.367l-1,4.823H96.652z"
   id="path27"
   fill="#0000FF" />
	</g>
	<g
   enable-background="new    "
   id="g29">
		<path
   d="M123.238,8.456h-9.484V6.815h9.484V8.456z M123.238,12.799h-9.484v-1.641h9.484V12.799z"
   id="path31"
   fill="#0000FF" />
		<path
   d="M130.74,13.081l1.766-0.234c0.202,0.996,0.544,1.714,1.026,2.153c0.482,0.439,1.074,0.659,1.775,0.659    c0.832,0,1.531-0.286,2.098-0.857c0.567-0.571,0.851-1.279,0.851-2.124c0-0.805-0.264-1.469-0.791-1.992    c-0.527-0.522-1.197-0.784-2.011-0.784c-0.332,0-0.745,0.065-1.24,0.195l0.195-1.547c0.117,0.013,0.212,0.02,0.283,0.02    c0.745,0,1.416-0.194,2.013-0.584c0.596-0.39,0.895-0.989,0.895-1.801c0-0.642-0.218-1.174-0.653-1.596    c-0.435-0.422-0.997-0.633-1.686-0.633c-0.683,0-1.251,0.215-1.706,0.645s-0.747,1.074-0.877,1.934l-1.766-0.313    c0.215-1.181,0.703-2.096,1.466-2.745c0.762-0.648,1.709-0.974,2.843-0.974c0.781,0,1.501,0.167,2.159,0.503    c0.658,0.334,1.161,0.791,1.51,1.37c0.348,0.579,0.522,1.193,0.522,1.844c0,0.618-0.166,1.181-0.498,1.688    c-0.332,0.507-0.824,0.91-1.475,1.209c0.846,0.195,1.504,0.6,1.973,1.215c0.469,0.613,0.703,1.383,0.703,2.305    c0,1.248-0.456,2.307-1.367,3.174c-0.912,0.868-2.064,1.302-3.457,1.302c-1.257,0-2.3-0.374-3.13-1.122    C131.331,15.241,130.857,14.271,130.74,13.081z"
   id="path33"
   fill="#0000FF" />
	</g>
</g>
<g
   id="g35">
	<g
   enable-background="new    "
   id="g37">
		<path
   d="M96.652,82.377l2.176-10.391h1.612l-0.368,1.813c0.704-0.714,1.362-1.233,1.974-1.56    c0.612-0.324,1.237-0.487,1.875-0.487c0.849,0,1.515,0.231,1.999,0.694c0.484,0.462,0.726,1.08,0.726,1.854    c0,0.383-0.09,0.987-0.271,1.813l-1.405,6.265h-1.771l1.456-6.588c0.145-0.64,0.217-1.112,0.217-1.419    c0-0.346-0.121-0.627-0.362-0.842c-0.242-0.216-0.591-0.323-1.047-0.323c-0.92,0-1.739,0.327-2.457,0.981    s-1.246,1.777-1.583,3.367l-1,4.823H96.652z"
   id="path39"
   fill="#0000FF" />
	</g>
	<g
   enable-background="new    "
   id="g41">
		<path
   d="M123.238,73.955h-9.484v-1.641h9.484V73.955z M123.238,78.299h-9.484v-1.641h9.484V78.299z"
   id="path43"
   fill="#0000FF" />
		<path
   d="M139.959,80.69v1.688h-9.469c-0.013-0.424,0.056-0.831,0.206-1.222c0.241-0.646,0.629-1.28,1.161-1.904    c0.533-0.624,1.3-1.346,2.3-2.163c1.553-1.278,2.604-2.291,3.151-3.036s0.822-1.451,0.822-2.117c0-0.696-0.249-1.283-0.747-1.762    c-0.499-0.479-1.148-0.718-1.949-0.718c-0.847,0-1.524,0.255-2.032,0.763c-0.508,0.509-0.765,1.213-0.771,2.112l-1.813-0.188    c0.124-1.348,0.59-2.374,1.398-3.081c0.809-0.706,1.895-1.06,3.257-1.06c1.376,0,2.465,0.381,3.267,1.143s1.203,1.706,1.203,2.832    c0,0.573-0.118,1.137-0.353,1.69c-0.235,0.553-0.625,1.136-1.17,1.748c-0.545,0.611-1.447,1.451-2.709,2.52    c-1.055,0.886-1.732,1.486-2.032,1.803c-0.3,0.315-0.547,0.633-0.742,0.952H139.959z"
   id="path45"
   fill="#0000FF" />
	</g>
</g>
<g
   enable-background="new    "
   id="g47">
	<path
   d="M96.652,122.66l2.176-10.391h1.612l-0.368,1.813c0.704-0.714,1.362-1.233,1.974-1.56   c0.612-0.324,1.237-0.487,1.875-0.487c0.849,0,1.515,0.231,1.999,0.694c0.484,0.462,0.726,1.08,0.726,1.854   c0,0.383-0.09,0.987-0.271,1.813l-1.405,6.265h-1.771l1.456-6.588c0.145-0.64,0.217-1.112,0.217-1.419   c0-0.346-0.121-0.627-0.362-0.842c-0.242-0.216-0.591-0.323-1.047-0.323c-0.92,0-1.739,0.327-2.457,0.981s-1.246,1.777-1.583,3.367   l-1,4.823H96.652z"
   id="path49"
   fill="#0000FF" />
</g>
<g
   enable-background="new    "
   id="g51">
	<path
   d="M123.238,114.238h-9.484v-1.641h9.484V114.238z M123.238,118.582h-9.484v-1.641h9.484V118.582z"
   id="path53"
   fill="#0000FF" />
	<path
   d="M137.35,122.66h-1.766v-11.201c-0.423,0.403-0.979,0.808-1.665,1.211c-0.687,0.403-1.304,0.706-1.851,0.908   v-1.699c0.983-0.462,1.844-1.022,2.58-1.68c0.736-0.657,1.257-1.296,1.563-1.914h1.138V122.66z"
   id="path55"
   fill="#0000FF" />
</g>
<g
   enable-background="new    "
   id="g57">
	<path
   d="M130.884,158.969v-3.922h-3.891v-1.641h3.891v-3.891h1.656v3.891h3.891v1.641h-3.891v3.922H130.884z"
   id="path59" />
</g>
<g
   enable-background="new    "
   id="g61">
	<path
   d="M138.064,161.297l0.188-1.422l7.18-8.57l1.484-1.796c0.303-0.361,0.601-0.709,0.892-1.04   c-0.608,0.076-1.033,0.114-1.275,0.114l-0.471-0.01l-0.568,0.01l-0.56,0.011h-4.835l0.342-1.625h9.889l-0.17,1.478l-7.701,9.155   c-0.936,1.126-1.53,1.831-1.782,2.117c0.286-0.052,0.472-0.078,0.556-0.078h7.794l-0.342,1.656H138.064z"
   id="path63" />
	<path
   d="M158.101,157.797l1.719,0.156c-0.248,0.852-0.818,1.661-1.709,2.428c-0.892,0.767-1.955,1.15-3.188,1.15   c-0.771,0-1.478-0.178-2.12-0.533c-0.645-0.355-1.133-0.872-1.47-1.551c-0.337-0.678-0.505-1.451-0.505-2.318   c0-1.135,0.264-2.235,0.789-3.302s1.205-1.859,2.041-2.377c0.836-0.52,1.74-0.778,2.713-0.778c1.24,0,2.23,0.386,2.971,1.155   c0.741,0.771,1.111,1.821,1.111,3.153c0,0.509-0.045,1.031-0.137,1.566h-7.66c-0.031,0.202-0.047,0.384-0.047,0.546   c0,0.97,0.225,1.709,0.674,2.22c0.448,0.511,0.996,0.766,1.645,0.766c0.609,0,1.209-0.195,1.799-0.587   C157.314,159.1,157.772,158.535,158.101,157.797z M152.94,155.203h5.846c0.007-0.184,0.01-0.314,0.01-0.394   c0-0.891-0.223-1.574-0.666-2.05c-0.445-0.476-1.018-0.713-1.717-0.713c-0.76,0-1.451,0.263-2.075,0.786   C153.714,153.358,153.247,154.148,152.94,155.203z"
   id="path65" />
</g>
<g
   id="g67">
	<path
   d="M291.392,109.41c-3.308-0.999-5.457-1.919-8.107-2.983v10.089c0.947-0.451,4.802-1.985,8.107-2.983   c3.539-1.069,6.748-1.801,8.828-2.062C298.14,111.21,294.931,110.479,291.392,109.41z"
   id="path69"
   fill="#FF0B0B" />
	<g
   id="g71">
		<path
   d="M262.005,111.46c0,0-4.001,17-8.334,0s-8.334,0-8.334,0s-4.001,17-8.334,0    s-8.334,0-8.334,0s-4.001,17-8.334,0s-8.334,0-8.334,0s-4.001,17-8.334,0s-8.334,0-8.334,0"
   id="path73"
   stroke-width="2"
   stroke="#FF0B0B"
   fill="none" />
		<line
   x1="277.999"
   y1="111.46"
   x2="286.667"
   y2="111.46"
   id="line75"
   stroke-width="2"
   stroke="#FF0B0B"
   fill="none" />
		<g
   id="g77">
			<g
   id="g79">
				<path
   d="M277.999,111.46h-7.66c-4.333-17-8.334,0-8.334,0"
   id="path81"
   stroke-width="2"
   stroke="#FF0B0B"
   fill="none" />
			</g>
		</g>
	</g>
</g>
<g
   enable-background="new    "
   id="g83">
	<path
   d="M200.476,145.229l5.488-14.328h2.04l5.862,14.328H200.476z M203.101,143.541h7.955l-3.092-8.159   c-0.467-1.213-0.809-2.193-1.024-2.942c-0.177,0.878-0.434,1.781-0.772,2.711L203.101,143.541z"
   id="path85"
   fill="#FF0B0B" />
</g>
<g
   enable-background="new    "
   id="g87">
	<path
   d="M214.702,145.229l3-14.328h10.391l-0.339,1.625h-8.493l-0.936,4.469h8.314l-0.344,1.625h-8.311   l-1.045,4.984h9.066l-0.344,1.625H214.702z"
   id="path89"
   fill="#FF0B0B" />
</g>
<g
   enable-background="new    "
   id="g91">
	<path
   d="M243.317,136.807h-9.484v-1.641h9.484V136.807z M243.317,141.15h-9.484v-1.641h9.484V141.15z"
   id="path93"
   fill="#FF0B0B" />
</g>
<g
   enable-background="new    "
   id="g95">
	<path
   d="M250.647,145.229l3-14.328h1.771l-1.154,5.513c0.647-0.646,1.249-1.109,1.807-1.39   c0.557-0.28,1.13-0.42,1.719-0.42c0.846,0,1.502,0.229,1.97,0.687c0.467,0.457,0.701,1.061,0.701,1.811   c0,0.364-0.109,1.034-0.327,2.01l-1.34,6.118h-1.771l1.376-6.294c0.197-0.914,0.296-1.488,0.296-1.723   c0-0.34-0.115-0.617-0.344-0.832c-0.23-0.216-0.562-0.323-0.994-0.323c-0.625,0-1.221,0.169-1.788,0.506s-1.012,0.798-1.333,1.384   c-0.322,0.586-0.617,1.53-0.885,2.832l-0.932,4.45H250.647z"
   id="path97"
   fill="#FF0B0B" />
	
<g
   style="font-size:20px;font-style:italic;font-variant:normal;font-weight:normal;font-stretch:normal;line-height:125%;letter-spacing:0px;word-spacing:0px;fill:#ff0000;fill-opacity:1;stroke:none;font-family:Khmer OS;-inkscape-font-specification:Khmer OS Italic"
   id="text3082"><path
     d="m 267.87277,134.61322 -0.27344,1.35742 -1.74804,0 -1.82617,9.1211 -1.66016,0 1.82617,-9.1211 -1.39648,0 0.27343,-1.35742 1.39649,0 0.35156,-1.77734 c 0.23437,-1.17838 0.8789,-1.92707 1.9336,-2.2461 0.31249,-0.0911 0.64778,-0.1367 1.00585,-0.13672 0.30599,2e-5 0.61523,0.0326 0.92774,0.0977 l -0.27344,1.37695 c -0.25391,-0.013 -0.44922,-0.0195 -0.58594,-0.0195 -0.77474,2e-5 -1.23373,0.35483 -1.37695,1.06446 l -0.32226,1.64062 1.74804,0"
     style="fill:#ff0000;font-family:Khmer OS;-inkscape-font-specification:Khmer OS Italic"
     id="path3033" /></g>
</g>
</svg>